<svg version="1.1" xmlns="http://www.w3.org/2000/svg" xmlns:xlink="http://www.w3.org/1999/xlink" width="400" height="400" viewBox="0 0 400 400">
<g id="icon-copy">
<path id="background" d="M200.000,0.000 C310.457,0.000 400.000,89.543 400.000,200.000 C400.000,310.457 310.457,400.000 200.000,400.000 C89.543,400.000 0.000,310.457 0.000,200.000 C0.000,89.543 89.543,0.000 200.000,0.000 z" fill="#616E86" fill-opacity="0.25" />
<path id="person" d="M200.061,399.999 C200.061,399.999 200.061,399.999 200.061,399.999 C145.293,399.999 95.704,377.956 59.577,342.311 C60.876,339.344 61.985,336.422 63.655,333.332 C76.525,309.538 145.499,293.332 145.499,293.332 C145.499,293.332 153.070,272.176 159.140,253.332 C132.247,241.043 118.217,178.319 118.217,146.665 C118.217,104.215 153.453,66.930 200.061,66.707 C200.061,66.707 200.061,66.667 200.061,66.667 C246.669,66.887 281.904,104.178 281.904,146.634 C281.904,178.292 267.875,241.023 240.982,253.315 C247.053,272.161 254.623,293.320 254.623,293.320 C254.623,293.320 323.597,309.528 336.467,333.323 C338.138,336.415 339.247,339.339 340.547,342.310 C304.419,377.954 254.831,399.999 200.061,399.999 z" fill="#616E86" />
</g>
</svg>
