<svg version="1.1" xmlns="http://www.w3.org/2000/svg" xmlns:xlink="http://www.w3.org/1999/xlink" width="400" height="400" viewBox="0 0 400 400"><path id="password-copy" d="M210.377,196.685 C210.377,196.685 335.638,321.947 335.638,321.947 L328.567,329.018 C328.567,329.018 203.652,204.102 203.652,204.102 C206.020,201.749 208.263,199.273 210.377,196.685 z" fill="#636E85" fill-opacity="0.400" /><path id="password" d="M327.998,359.997 L314.739,359.997 L313.000,359.997 L313.000,344.000 L272.000,344.000 L272.000,327.000 L263.997,327.000 L263.997,309.252 L250.738,295.998 L224.000,295.998 L224.000,273.000 L199.996,273.000 L199.996,245.251 L186.741,231.997 L167.998,231.997 C167.998,231.997 159.976,231.997 136.125,231.997 C162.470,231.963 186.325,221.315 203.652,204.102 C203.652,204.102 328.567,329.018 328.567,329.018 L335.638,321.947 C335.638,321.947 210.377,196.685 210.377,196.685 C223.852,180.190 231.952,159.135 231.995,136.185 C231.995,159.988 231.995,167.997 231.995,167.997 L231.995,186.741 L359.997,314.743 L359.997,359.997 L327.998,359.997 zM136.000,40.000 C82.981,40.000 40.000,82.981 40.000,136.000 C40.000,170.792 58.508,201.261 86.216,218.099 C58.506,201.262 39.996,170.791 39.996,135.997 C39.996,82.977 82.974,39.997 135.997,39.997 C157.536,39.997 177.418,47.091 193.435,59.069 C177.418,47.093 157.537,40.000 136.000,40.000 z" fill="#636E85" fill-opacity="0.502" /><path id="Ellipse-1" d="M136.000,232.000 C82.981,232.000 40.000,189.019 40.000,136.000 C40.000,82.981 82.981,40.000 136.000,40.000 C189.019,40.000 232.000,82.981 232.000,136.000 C232.000,189.019 189.019,232.000 136.000,232.000 zM119.995,93.048 C105.111,93.048 93.049,105.114 93.049,119.993 C93.049,134.876 105.111,146.942 119.995,146.942 C134.877,146.942 146.943,134.876 146.943,119.993 C146.943,105.114 134.877,93.048 119.995,93.048 z" fill="#636E85" fill-opacity="0.749" /></svg>