<?xml version="1.0" encoding="UTF-8"?>
<svg width="328px" height="110px" viewBox="0 0 328 110" version="1.1" xmlns="http://www.w3.org/2000/svg" xmlns:xlink="http://www.w3.org/1999/xlink">
    <!-- Generator: Sketch 48.2 (47327) - http://www.bohemiancoding.com/sketch -->
    <title>Mask</title>
    <desc>Created with Sketch.</desc>
    <defs>
        <path d="M499.594136,191.572 L503.060136,191.572 L503.060136,247.829 L499.594136,247.829 L499.594136,191.572 Z M595.549136,194.565 L595.549136,191.572 L638.649136,191.572 L638.649136,194.565 L618.794136,194.565 L618.794136,247.829 L615.328136,247.829 L615.328136,194.565 L595.549136,194.565 Z M650.451136,247.83 L646.747136,247.83 L669.361136,191.572 L673.143136,191.572 L695.363136,247.83 L691.660136,247.83 L671.410136,194.959 L650.451136,247.83 Z M554.449136,249.168 C537.587136,249.168 527.659136,236.168 527.659136,219.7 C527.659136,203.232 537.586136,190.231 554.449136,190.231 C571.232136,190.231 581.160136,203.232 581.160136,219.7 C581.160136,236.168 571.232136,249.168 554.449136,249.168 Z M554.449136,246.175 C569.104136,246.175 577.693136,234.119 577.693136,219.7 C577.693136,205.281 569.104136,193.226 554.449136,193.226 C539.715136,193.226 531.126136,205.281 531.126136,219.7 C531.126136,234.119 539.714136,246.175 554.449136,246.175 Z M436.898136,191.398 C436.193136,190.388 436.439136,188.993 437.445136,188.288 C437.809136,188.035 438.243136,187.9 438.699136,187.9 C439.448136,187.9 440.140136,188.255 440.552136,188.849 C441.249136,189.846 441.002136,191.233 440.004136,191.938 C439.805136,192.076 439.587136,192.181 439.358136,192.248 C438.443136,192.519 437.432136,192.166 436.898136,191.398 Z M431.203136,185.831 C431.167136,185.135 431.402136,184.473 431.870136,183.962 C432.343136,183.43 433.051136,183.125 433.812136,183.125 C434.460136,183.125 435.068136,183.349 435.520136,183.754 C436.035136,184.218 436.340136,184.854 436.377136,185.545 C436.414136,186.236 436.181136,186.898 435.716136,187.413 C435.398136,187.772 434.984136,188.035 434.520136,188.173 C433.658136,188.426 432.723136,188.214 432.053136,187.601 C431.542136,187.154 431.240136,186.525 431.203136,185.831 Z M425.513136,184.55 C424.068136,183.747 423.540136,181.911 424.333136,180.458 C424.849136,179.531 425.912136,178.932 427.041136,178.932 C427.539136,178.932 428.022136,179.053 428.437136,179.28 C429.141136,179.667 429.650136,180.308 429.872136,181.084 C430.093136,181.857 429.999136,182.669 429.605136,183.375 C429.226136,184.071 428.595136,184.578 427.828136,184.804 C427.549136,184.887 427.261136,184.929 426.973136,184.929 C426.468136,184.929 425.963136,184.798 425.513136,184.55 Z M417.215136,182.791 C415.352136,182.247 414.259136,180.293 414.776136,178.441 C415.206136,176.966 416.662136,175.895 418.235136,175.895 C418.540136,175.895 418.841136,175.936 419.127136,176.017 C420.030136,176.277 420.777136,176.872 421.233136,177.692 C421.689136,178.516 421.798136,179.465 421.543136,180.363 C421.210136,181.526 420.314136,182.427 419.147136,182.773 C418.514136,182.958 417.828136,182.961 417.215136,182.791 Z M407.178136,182.936 C404.927136,182.826 403.182136,180.897 403.291136,178.642 C403.410136,176.492 405.257136,174.742 407.406136,174.742 L407.608136,174.747 C408.690136,174.797 409.690136,175.27 410.424136,176.08 C411.167136,176.898 411.544136,177.955 411.486136,179.057 C411.400136,180.788 410.221136,182.282 408.554136,182.774 C408.108136,182.905 407.650136,182.962 407.178136,182.936 Z M390.179136,181.892 C389.720136,179.322 391.467136,176.834 394.069136,176.348 C394.344136,176.3 394.624136,176.275 394.902136,176.275 C397.223136,176.275 399.210136,177.937 399.626136,180.224 C400.048136,182.63 398.600136,184.965 396.261136,185.656 C396.092136,185.705 395.918136,185.746 395.743136,185.776 C395.466136,185.825 395.184136,185.85 394.906136,185.85 C392.575136,185.849 390.587136,184.185 390.179136,181.892 Z M437.719136,199.903 C437.400136,200.258 436.991136,200.517 436.535136,200.652 C436.293136,200.723 436.043136,200.76 435.793136,200.76 C435.156136,200.759 434.539136,200.521 434.058136,200.094 C433.544136,199.628 433.245136,198.994 433.213136,198.306 C433.178136,197.611 433.413136,196.95 433.880136,196.437 C434.344136,195.912 435.044136,195.611 435.798136,195.611 C436.452136,195.611 437.060136,195.838 437.518136,196.254 C438.034136,196.71 438.338136,197.342 438.376136,198.033 C438.415136,198.726 438.181136,199.39 437.719136,199.903 Z M431.873136,193.57 C432.091136,194.344 431.996136,195.153 431.598136,195.858 C431.226136,196.555 430.596136,197.064 429.826136,197.292 C429.547136,197.375 429.260136,197.416 428.973136,197.416 C428.474136,197.416 427.973136,197.287 427.524136,197.04 C426.075136,196.249 425.539136,194.411 426.323136,192.952 C426.862136,192.001 427.899136,191.41 429.029136,191.41 C429.526136,191.41 430.010136,191.532 430.427136,191.761 C431.132136,192.151 431.646136,192.795 431.873136,193.57 Z M423.543136,192.84 C423.204136,194.007 422.310136,194.908 421.154136,195.251 C420.518136,195.438 419.834136,195.439 419.196136,195.261 C417.334136,194.726 416.252136,192.778 416.783136,190.918 C417.204136,189.447 418.652136,188.38 420.226136,188.38 C420.532136,188.38 420.834136,188.422 421.125136,188.505 C422.022136,188.76 422.769136,189.351 423.227136,190.167 C423.682136,190.993 423.794136,191.944 423.543136,192.84 Z M413.483136,191.539 C413.389136,193.275 412.213136,194.77 410.559136,195.26 C410.185136,195.37 409.801136,195.426 409.414136,195.426 C409.338136,195.426 409.260136,195.423 409.180136,195.419 C406.922136,195.302 405.179136,193.371 405.295136,191.117 C405.408136,189.011 407.285136,187.232 409.395136,187.232 C409.463136,187.232 409.534136,187.234 409.607136,187.238 C410.693136,187.289 411.694136,187.764 412.429136,188.575 C413.168136,189.389 413.542136,190.442 413.483136,191.539 Z M396.887136,188.751 C399.213136,188.751 401.203136,190.416 401.621136,192.704 C402.037136,195.109 400.595136,197.442 398.267136,198.13 C398.092136,198.18 397.916136,198.223 397.729136,198.255 C396.476136,198.48 395.191136,198.197 394.150136,197.47 C393.098136,196.737 392.396136,195.637 392.172136,194.375 C391.722136,191.763 393.464136,189.273 396.059136,188.824 C396.333136,188.775 396.611136,188.751 396.887136,188.751 Z M378.006136,201.576 C376.802136,198.736 378.134136,195.441 380.974136,194.231 C381.675136,193.933 382.412136,193.782 383.164136,193.782 C385.417136,193.782 387.441136,195.12 388.322136,197.193 C388.910136,198.563 388.928136,200.078 388.372136,201.46 C387.816136,202.85 386.745136,203.942 385.357136,204.536 C385.146136,204.625 384.932136,204.703 384.720136,204.765 C384.208136,204.917 383.679136,204.993 383.149136,204.993 C380.906136,204.993 378.887136,203.652 378.006136,201.576 Z M436.032136,205.549 C437.481136,206.349 438.014136,208.182 437.223136,209.629 C436.823136,210.335 436.183136,210.848 435.422136,211.073 C434.648136,211.301 433.817136,211.208 433.108136,210.807 C431.658136,210.005 431.132136,208.172 431.937136,206.716 C432.440136,205.791 433.494136,205.193 434.620136,205.193 C435.123136,205.193 435.611136,205.316 436.032136,205.549 Z M422.681136,207.382 C422.224136,206.553 422.116136,205.598 422.377136,204.694 C422.805136,203.226 424.251136,202.161 425.815136,202.161 C426.124136,202.161 426.429136,202.204 426.724136,202.289 C428.575136,202.813 429.657136,204.761 429.136136,206.627 C428.805136,207.793 427.911136,208.694 426.746136,209.037 C426.422136,209.133 426.086136,209.181 425.746136,209.181 C425.420136,209.181 425.095136,209.136 424.782136,209.05 C423.882136,208.791 423.135136,208.198 422.681136,207.382 Z M419.089136,205.316 C418.989136,207.055 417.806136,208.552 416.147136,209.042 C415.770136,209.153 415.377136,209.209 414.977136,209.209 L414.776136,209.205 C412.516136,209.083 410.774136,207.148 410.895136,204.892 C411.000136,202.786 412.881136,201.007 415.000136,201.007 L415.193136,201.012 C417.453136,201.128 419.200136,203.06 419.089136,205.316 Z M402.497136,212.118 C400.172136,212.118 398.187136,210.457 397.777136,208.169 C397.318136,205.56 399.057136,203.062 401.652136,202.6 C401.927136,202.551 402.208136,202.527 402.486136,202.527 C404.813136,202.527 406.799136,204.194 407.209136,206.489 C407.637136,208.895 406.193136,211.23 403.848136,211.921 C403.679136,211.972 403.506136,212.014 403.326136,212.045 C403.052136,212.093 402.773136,212.118 402.497136,212.118 Z M393.962136,215.265 C393.402136,216.656 392.334136,217.743 390.954136,218.326 C390.751136,218.413 390.548136,218.485 390.340136,218.547 C389.824136,218.699 389.291136,218.776 388.757136,218.776 C386.510136,218.776 384.487136,217.437 383.602136,215.365 C383.009136,213.979 382.994136,212.45 383.560136,211.059 C384.121136,209.678 385.189136,208.598 386.572136,208.017 C387.252136,207.724 387.975136,207.575 388.721136,207.575 C390.960136,207.575 393.050136,208.942 393.923136,210.977 C394.511136,212.348 394.525136,213.87 393.962136,215.265 Z M379.868136,219.645 C381.997136,222.564 381.350136,226.679 378.428136,228.817 C377.814136,229.262 377.140136,229.595 376.425136,229.805 C375.825136,229.982 375.203136,230.072 374.577136,230.072 C372.476136,230.072 370.486136,229.059 369.255136,227.365 C368.226136,225.951 367.809136,224.218 368.081136,222.485 C368.353136,220.752 369.280136,219.231 370.693136,218.203 C371.308136,217.755 371.984136,217.421 372.701136,217.21 C373.302136,217.032 373.924136,216.941 374.551136,216.941 C376.645136,216.941 378.633136,217.952 379.868136,219.645 Z M450.461136,242.631 C450.511136,243.212 450.323136,243.787 449.931136,244.247 C449.546136,244.704 448.996136,244.993 448.421136,245.04 C448.356136,245.045 448.293136,245.048 448.230136,245.048 C447.095136,245.048 446.125136,244.158 446.021136,243.025 C446.001136,242.776 446.019136,242.541 446.075136,242.308 C446.302136,241.368 447.091136,240.682 448.041136,240.602 C448.106136,240.597 448.170136,240.594 448.234136,240.594 C449.384136,240.594 450.363136,241.489 450.461136,242.631 Z M452.026136,240.155 C452.238136,239.272 452.879136,238.583 453.752136,238.306 C454.010136,238.218 454.280136,238.173 454.551136,238.173 C454.947136,238.173 455.348136,238.27 455.711136,238.456 C456.331136,238.77 456.788136,239.303 456.997136,239.965 C457.203136,240.587 457.140136,241.302 456.825136,241.928 C456.510136,242.552 455.972136,243.029 455.351136,243.232 C454.006136,243.669 452.515136,242.901 452.085136,241.575 C451.934136,241.117 451.914136,240.627 452.026136,240.155 Z M458.288136,236.044 C458.477136,235.254 458.968136,234.587 459.666136,234.165 C460.131136,233.887 460.663136,233.741 461.205136,233.741 C462.260136,233.741 463.255136,234.297 463.799136,235.19 C464.622136,236.564 464.140136,238.5 462.766136,239.332 C462.299136,239.616 461.768136,239.766 461.228136,239.766 L461.227136,239.766 C460.981136,239.766 460.732136,239.735 460.488136,239.673 C459.708136,239.479 459.052136,238.992 458.637136,238.298 C458.223136,237.619 458.099136,236.82 458.288136,236.044 Z M467.812136,233.889 L467.812136,234.399 L467.811136,234.399 L467.744136,233.888 C466.805136,233.872 465.928136,233.493 465.276136,232.821 C464.435136,231.952 464.103136,230.726 464.388136,229.541 C464.544136,228.897 464.874136,228.314 465.337136,227.86 C466.004136,227.225 466.880136,226.874 467.805136,226.874 C468.766136,226.874 469.663136,227.248 470.324136,227.923 C471.619136,229.278 471.583136,231.606 470.248136,232.903 C469.588136,233.538 468.723136,233.889 467.812136,233.889 Z M477.108136,223.562 C476.523136,224.473 475.613136,225.104 474.545136,225.335 C474.253136,225.398 473.956136,225.429 473.663136,225.429 C472.873136,225.429 472.103136,225.2 471.435136,224.765 C469.980136,223.825 469.275136,222.057 469.682136,220.369 C469.792136,219.915 469.977136,219.488 470.230136,219.097 C470.985136,217.924 472.273136,217.225 473.676136,217.225 C474.463136,217.225 475.231136,217.45 475.893136,217.876 C477.759136,219.096 478.316136,221.699 477.108136,223.562 Z M479.636136,204.896 C482.090136,205.784 483.370136,208.54 482.492136,211.035 C481.806136,212.922 479.990136,214.191 477.971136,214.191 C477.420136,214.191 476.877136,214.096 476.357136,213.91 C474.063136,213.074 472.764136,210.653 473.335136,208.282 C473.378136,208.111 473.427136,207.94 473.490136,207.772 C474.180136,205.879 475.996136,204.608 478.008136,204.608 C478.562136,204.608 479.110136,204.705 479.636136,204.896 Z M440.212136,235.664 C440.423136,234.783 441.069136,234.083 441.933136,233.795 C442.194136,233.711 442.462136,233.668 442.730136,233.668 C443.140136,233.668 443.534136,233.766 443.904136,233.956 C444.523136,234.275 444.979136,234.81 445.190136,235.469 C445.395136,236.082 445.332136,236.791 445.017136,237.411 C444.700136,238.036 444.160136,238.51 443.531136,238.711 C443.265136,238.799 442.992136,238.844 442.718136,238.844 C442.313136,238.844 441.924136,238.75 441.558136,238.564 C440.939136,238.251 440.480136,237.719 440.267136,237.061 C440.118136,236.608 440.100136,236.125 440.212136,235.664 Z M448.674136,235.166 C447.894136,234.966 447.241136,234.479 446.830136,233.784 C446.413136,233.113 446.288136,232.312 446.476136,231.532 C446.665136,230.747 447.151136,230.085 447.844136,229.664 C448.309136,229.38 448.845136,229.23 449.392136,229.23 C450.459136,229.23 451.430136,229.771 451.985136,230.667 C452.814136,232.077 452.346136,233.977 450.964136,234.817 C450.282136,235.229 449.442136,235.353 448.674136,235.166 Z M455.985136,229.378 L455.984136,229.378 L455.984136,229.892 L455.943136,229.378 C455.001136,229.361 454.122136,228.982 453.470136,228.316 C452.629136,227.437 452.295136,226.213 452.577136,225.04 C452.733136,224.397 453.069136,223.807 453.547136,223.339 C454.206136,222.705 455.074136,222.355 455.991136,222.355 C456.953136,222.355 457.850136,222.733 458.515136,223.421 C459.136136,224.063 459.483136,224.977 459.466136,225.927 C459.450136,226.874 459.074136,227.771 458.433136,228.388 C457.778136,229.026 456.908136,229.378 455.985136,229.378 Z M465.292136,219.05 C464.704136,219.962 463.792136,220.593 462.722136,220.826 C462.433136,220.888 462.140136,220.919 461.849136,220.919 C461.064136,220.919 460.295136,220.69 459.627136,220.256 C458.171136,219.305 457.464136,217.54 457.868136,215.862 C457.979136,215.406 458.163136,214.979 458.419136,214.589 C459.179136,213.419 460.468136,212.72 461.869136,212.72 C462.658136,212.72 463.425136,212.948 464.088136,213.377 C464.971136,213.951 465.608136,214.9 465.836136,215.981 C466.066136,217.07 465.874136,218.158 465.292136,219.05 Z M464.551136,209.398 C462.259136,208.556 460.959136,206.14 461.526136,203.784 C461.570136,203.607 461.622136,203.432 461.687136,203.253 C462.122136,202.049 462.999136,201.087 464.158136,200.545 C464.802136,200.243 465.484136,200.09 466.187136,200.09 C466.745136,200.09 467.298136,200.187 467.827136,200.38 C470.314136,201.295 471.600136,204.05 470.692136,206.522 C470.002136,208.409 468.183136,209.678 466.162136,209.678 C465.612136,209.678 465.068136,209.583 464.551136,209.398 Z M467.311136,195.636 C465.831136,195.459 464.510136,194.717 463.592136,193.547 C462.666136,192.37 462.255136,190.895 462.435136,189.398 C462.464136,189.17 462.503136,188.946 462.555136,188.731 C463.160136,186.221 465.392136,184.469 467.983136,184.469 C468.211136,184.469 468.442136,184.483 468.673136,184.511 C471.735136,184.889 473.923136,187.689 473.550136,190.752 C473.204136,193.56 470.816136,195.678 467.994136,195.678 C467.768136,195.678 467.541136,195.664 467.311136,195.636 Z M437.571136,230.894 C437.375136,231.693 436.883136,232.379 436.221136,232.776 C435.753136,233.059 435.217136,233.208 434.671136,233.208 C433.604136,233.208 432.639136,232.667 432.091136,231.768 C431.680136,231.07 431.555136,230.259 431.742136,229.487 C431.932136,228.698 432.422136,228.035 433.127136,227.618 C433.594136,227.335 434.128136,227.187 434.671136,227.187 C435.724136,227.187 436.714136,227.746 437.257136,228.647 C437.649136,229.289 437.763136,230.107 437.571136,230.894 Z M441.264136,227.328 C440.303136,227.328 439.404136,226.951 438.735136,226.268 C437.891136,225.397 437.557136,224.172 437.841136,222.992 C437.998136,222.347 438.336136,221.753 438.812136,221.284 C439.475136,220.648 440.344136,220.298 441.307136,220.298 L441.308136,220.298 C442.254136,220.317 443.135136,220.702 443.788136,221.38 C445.085136,222.734 445.043136,225.053 443.696136,226.347 C443.045136,226.979 442.182136,227.328 441.264136,227.328 Z M444.895136,218.22 C443.438136,217.265 442.732136,215.492 443.139136,213.81 C443.245136,213.363 443.430136,212.935 443.683136,212.541 C444.445136,211.372 445.735136,210.674 447.134136,210.674 C447.924136,210.674 448.694136,210.903 449.359136,211.336 C451.189136,212.52 451.754136,215.166 450.569136,216.999 C449.809136,218.172 448.517136,218.874 447.114136,218.874 C446.324136,218.874 445.556136,218.647 444.895136,218.22 Z M453.078136,198.337 C455.566136,199.244 456.860136,201.999 455.963136,204.476 C455.276136,206.364 453.461136,207.632 451.445136,207.632 C450.890136,207.632 450.341136,207.536 449.816136,207.346 C447.520136,206.513 446.219136,204.094 446.794136,201.716 C446.834136,201.544 446.885136,201.375 446.947136,201.205 C447.635136,199.32 449.449136,198.053 451.459136,198.053 C452.012136,198.053 452.557136,198.149 453.078136,198.337 Z M453.933136,182.463 C455.431136,182.643 456.763136,183.395 457.681136,184.581 C458.597136,185.757 458.998136,187.222 458.810136,188.711 C458.489136,191.473 456.035136,193.636 453.224136,193.636 C453.009136,193.636 452.791136,193.623 452.574136,193.597 C451.093136,193.42 449.767136,192.67 448.841136,191.485 C447.917136,190.306 447.509136,188.838 447.693136,187.348 C447.718136,187.13 447.757136,186.92 447.808136,186.709 C448.417136,184.185 450.656136,182.422 453.253136,182.422 C453.477136,182.422 453.704136,182.435 453.933136,182.463 Z M451.393136,177.126 C448.037136,177.126 445.234136,174.602 444.871136,171.255 C444.792136,170.508 444.841136,169.757 445.015136,169.026 C445.667136,166.331 447.957136,164.326 450.716136,164.037 C450.950136,164.012 451.182136,164 451.412136,164 C454.774136,164 457.577136,166.522 457.932136,169.864 C458.011136,170.62 457.963136,171.373 457.787136,172.1 C457.140136,174.788 454.853136,176.792 452.095136,177.088 C451.859136,177.114 451.625136,177.126 451.393136,177.126 Z M399.364136,223.095 C400.065136,223.762 400.264136,224.79 399.858136,225.652 C399.492136,226.435 398.695136,226.941 397.828136,226.941 C397.502136,226.941 397.187136,226.871 396.892136,226.733 C396.363136,226.485 395.960136,226.034 395.755136,225.467 C395.552136,224.905 395.577136,224.283 395.823136,223.762 C396.184136,222.989 396.978136,222.489 397.844136,222.489 C398.168136,222.489 398.482136,222.558 398.771136,222.691 C398.996136,222.798 399.190136,222.93 399.364136,223.095 Z M396.998136,228.669 C397.464136,228.763 397.899136,228.991 398.253136,229.323 C398.912136,229.95 399.189136,230.851 398.992136,231.745 C398.859136,232.412 398.466136,232.988 397.884136,233.368 C397.303136,233.745 396.624136,233.879 395.933136,233.725 C395.292136,233.594 394.705136,233.183 394.321136,232.598 C393.936136,232.012 393.793136,231.307 393.927136,230.667 C394.181136,229.474 395.243136,228.61 396.452136,228.61 C396.632136,228.61 396.814136,228.63 396.998136,228.669 Z M396.668136,242.002 L396.625136,242.516 L396.625136,242.003 C395.045136,242.003 393.629136,240.617 393.594136,239.037 C393.578136,238.236 393.877136,237.473 394.438136,236.892 C394.998136,236.315 395.748136,235.991 396.636136,235.979 C397.398136,235.979 398.125136,236.272 398.683136,236.803 C399.272136,237.362 399.605136,238.121 399.621136,238.936 C399.647136,240.588 398.320136,241.964 396.668136,242.002 Z M398.912136,251.382 C397.305136,251.381 395.805136,250.241 395.423136,248.728 C395.196136,247.818 395.338136,246.873 395.819136,246.071 C396.306136,245.264 397.073136,244.694 397.979136,244.466 C398.260136,244.396 398.548136,244.361 398.836136,244.361 C399.738136,244.361 400.601136,244.709 401.265136,245.337 C401.744136,245.795 402.084136,246.373 402.247136,247.001 C402.707136,248.886 401.560136,250.809 399.698136,251.287 C399.443136,251.35 399.178136,251.382 398.912136,251.382 Z M405.614136,261.134 C405.054136,261.418 404.444136,261.562 403.802136,261.561 C402.231136,261.561 400.772136,260.692 400.084136,259.344 C399.585136,258.382 399.495136,257.278 399.829136,256.238 C400.167136,255.186 400.895136,254.33 401.876136,253.828 C402.446136,253.536 403.087136,253.382 403.731136,253.382 C404.791136,253.382 405.797136,253.783 406.562136,254.512 C406.899136,254.832 407.177136,255.206 407.389136,255.622 C408.421136,257.627 407.623136,260.1 405.614136,261.134 Z M415.567136,264.105 C417.266136,266.131 417.005136,269.165 414.985136,270.865 C414.135136,271.581 413.052136,271.975 411.935136,271.975 C410.515136,271.975 409.168136,271.352 408.240136,270.271 C406.546136,268.253 406.806136,265.225 408.817136,263.519 C409.681136,262.795 410.776136,262.396 411.900136,262.396 C413.135136,262.396 414.308136,262.865 415.201136,263.713 C415.329136,263.837 415.452136,263.966 415.567136,264.105 Z M406.813136,220.687 C407.279136,220.787 407.707136,221.012 408.051136,221.34 C408.708136,221.966 408.992136,222.874 408.809136,223.765 C408.662136,224.442 408.262136,225.019 407.683136,225.39 C407.101136,225.764 406.420136,225.897 405.730136,225.747 C405.095136,225.618 404.514136,225.209 404.134136,224.626 C403.752136,224.039 403.612136,223.334 403.753136,222.688 C403.891136,222.011 404.285136,221.431 404.863136,221.053 C405.290136,220.777 405.777136,220.631 406.275136,220.631 C406.455136,220.631 406.636136,220.649 406.813136,220.687 Z M406.491136,234.033 L406.467136,234.547 L406.467136,234.033 C404.845136,234.033 403.445136,232.679 403.410136,231.076 C403.394136,230.269 403.695136,229.501 404.253136,228.917 C404.815136,228.342 405.563136,228.021 406.360136,228.012 L406.467136,228.01 C407.221136,228.01 407.941136,228.302 408.498136,228.83 C409.082136,229.386 409.414136,230.137 409.431136,230.947 C409.471136,232.598 408.147136,233.983 406.491136,234.033 Z M405.628136,238.106 C406.115136,237.298 406.883136,236.727 407.785136,236.495 C408.066136,236.426 408.354136,236.391 408.641136,236.391 C409.547136,236.391 410.409136,236.736 411.067136,237.361 C411.549136,237.819 411.890136,238.404 412.055136,239.051 C412.522136,240.929 411.376136,242.841 409.501136,243.312 C409.245136,243.377 408.979136,243.409 408.711136,243.409 C407.108136,243.409 405.616136,242.27 405.239136,240.756 C405.011136,239.854 405.150136,238.912 405.628136,238.106 Z M409.647136,248.254 C409.983136,247.208 410.707136,246.356 411.686136,245.857 C412.261136,245.566 412.906136,245.412 413.551136,245.412 C414.609136,245.412 415.610136,245.809 416.368136,246.529 C416.708136,246.854 416.987136,247.229 417.197136,247.645 C418.224136,249.659 417.424136,252.135 415.413136,253.162 C414.868136,253.44 414.246136,253.586 413.616136,253.586 C412.041136,253.586 410.583136,252.716 409.899136,251.365 C409.402136,250.401 409.313136,249.296 409.647136,248.254 Z M425.381136,256.144 C426.207136,257.124 426.601136,258.363 426.492136,259.636 C426.383136,260.913 425.781136,262.072 424.799136,262.898 C423.929136,263.622 422.830136,264.02 421.705136,264.02 C420.291136,264.02 418.958136,263.396 418.049136,262.306 C416.359136,260.288 416.620136,257.255 418.628136,255.549 C419.495136,254.826 420.592136,254.428 421.716136,254.428 C422.946136,254.428 424.114136,254.895 425.000136,255.736 C425.132136,255.865 425.259136,255.997 425.381136,256.144 Z M437.524136,264.155 C439.576136,266.107 439.831136,269.292 438.119136,271.565 C437.052136,272.978 435.418136,273.79 433.638136,273.79 C432.415136,273.79 431.252136,273.401 430.275136,272.666 C429.074136,271.762 428.300136,270.445 428.095136,268.958 C427.890136,267.48 428.270136,266.011 429.165136,264.823 C430.059136,263.629 431.361136,262.856 432.834136,262.646 C433.104136,262.607 433.372136,262.587 433.640136,262.587 C434.855136,262.587 436.020136,262.979 437.006136,263.718 C437.190136,263.857 437.365136,264.005 437.524136,264.155 Z M415.604136,222.29 L415.538136,222.801 L415.537136,222.801 L415.537136,222.291 C413.972136,222.291 412.574136,220.907 412.546136,219.327 C412.514136,217.672 413.836136,216.294 415.512136,216.255 C416.312136,216.255 417.065136,216.552 417.635136,217.094 C418.224136,217.653 418.553136,218.41 418.561136,219.228 C418.592136,220.887 417.267136,222.259 415.604136,222.29 Z M414.377136,229.016 C413.905136,227.153 415.051136,225.242 416.928136,224.758 C417.211136,224.687 417.501136,224.651 417.791136,224.651 C418.692136,224.651 419.552136,224.996 420.210136,225.624 C420.692136,226.083 421.036136,226.671 421.204136,227.318 C421.429136,228.229 421.288136,229.172 420.809136,229.974 C420.321136,230.782 419.548136,231.352 418.633136,231.579 C418.379136,231.641 418.116136,231.672 417.851136,231.672 C416.244136,231.672 414.751136,230.532 414.377136,229.016 Z M419.037136,239.642 C418.006136,237.627 418.806136,235.148 420.815136,234.117 C421.390136,233.827 422.034136,233.673 422.678136,233.673 C423.741136,233.673 424.748136,234.073 425.512136,234.8 C425.846136,235.118 426.125136,235.491 426.339136,235.907 C427.363136,237.927 426.560136,240.401 424.546136,241.424 C424.002136,241.703 423.381136,241.849 422.749136,241.849 C421.180136,241.849 419.723136,240.983 419.037136,239.642 Z M427.183136,250.574 C425.486136,248.553 425.750136,245.522 427.771136,243.816 C428.635136,243.089 429.730136,242.689 430.855136,242.689 C432.088136,242.689 433.261136,243.159 434.159136,244.015 C434.288136,244.136 434.410136,244.266 434.525136,244.402 C436.217136,246.423 435.955136,249.449 433.943136,251.147 C433.071136,251.878 431.968136,252.28 430.838136,252.28 C429.427136,252.28 428.095136,251.657 427.183136,250.574 Z M447.263136,259.825 C446.357136,261.031 445.041136,261.808 443.555136,262.013 C443.295136,262.049 443.036136,262.067 442.778136,262.067 C441.560136,262.067 440.398136,261.673 439.414136,260.926 C438.240136,260.054 437.475136,258.754 437.258136,257.267 C437.039136,255.761 437.409136,254.274 438.301136,253.081 C439.195136,251.885 440.507136,251.111 441.995136,250.902 C442.261136,250.865 442.528136,250.845 442.792136,250.845 C444.009136,250.845 445.170136,251.237 446.152136,251.977 C446.329136,252.108 446.491136,252.248 446.648136,252.397 C448.706136,254.353 448.971136,257.547 447.263136,259.825 Z M463.358136,258.82 C465.367136,260.73 465.958136,263.715 464.829136,266.249 C463.777136,268.618 461.419136,270.149 458.822136,270.149 C457.907136,270.149 457.016136,269.958 456.177136,269.586 C455.478136,269.272 454.850136,268.854 454.311136,268.342 C452.306136,266.438 451.714136,263.454 452.837136,260.916 C453.888136,258.548 456.248136,257.018 458.852136,257.018 C459.767136,257.018 460.658136,257.206 461.499136,257.577 C462.190136,257.886 462.815136,258.304 463.358136,258.82 Z" id="path-1"></path>
    </defs>
    <g id="Desktop" stroke="none" stroke-width="1" fill="none" fill-rule="evenodd" transform="translate(-368.000000, -164.000000)">
        <mask id="mask-2" fill="white">
            <use xlink:href="#path-1"></use>
        </mask>
        <use id="Mask" fill="#000000" fill-rule="nonzero" xlink:href="#path-1"></use>
    </g>
</svg>