<?xml version="1.0" encoding="UTF-8"?>
<svg width="178px" height="25px" viewBox="0 0 178 25" version="1.1" xmlns="http://www.w3.org/2000/svg" xmlns:xlink="http://www.w3.org/1999/xlink">
    <!-- Generator: Sketch 48.2 (47327) - http://www.bohemiancoding.com/sketch -->
    <title>Text</title>
    <desc>Created with Sketch.</desc>
    <g id="Desktop" stroke="none" stroke-width="1" fill="none" fill-rule="evenodd">
        <g id="Logo">
             <path d="M15.264,0.262314189 L15.264,3.05180797 L9.252,3.05130549 L9.252,24.0745635 L6.3,24.0743168 L6.3,3.05105876 L0.288,3.05055627 L0.288,0.261062494 L15.264,0.262314189 Z M32.1294808,24.0745548 L32.235,24.0745635 L27.378,6.59071501 L22.521,24.0737654 L22.5905265,24.0737711 L22.59,24.0756783 L19.458,24.0754165 L26.19,0.263227384 L28.53,0.263422961 L35.19,24.0767314 L32.13,24.0764756 L32.1294808,24.0745548 Z M56.322,24.0784976 L46.314,7.37471667 L46.314,24.0776611 L43.362,24.0774144 L43.362,0.264662621 L45.45,0.264837136 L55.674,17.3428365 L55.674,0.265691658 L58.626,0.265938387 L58.626,24.0786902 L56.322,24.0784976 Z M74.61,24.0800261 C72.4979894,24.0798496 70.6860076,23.3653227 69.174,21.9364241 C67.6859926,20.5302064 66.942,18.8179111 66.942,16.7994868 L66.942,7.51251363 C66.942,5.51676826 67.6859926,3.81593661 69.174,2.40996765 C70.6860076,0.981321773 72.4979894,0.267097808 74.61,0.26727433 L75.942,0.267385659 C78.0540106,0.267562181 79.8659924,0.982089036 81.378,2.41098766 C82.8660074,3.81720536 83.61,5.51816137 83.61,7.51390674 L83.61,8.12623464 L80.658,8.12598791 L80.658,7.51366001 C80.658,6.28899808 80.1960046,5.24007494 79.272,4.36685911 C78.3479954,3.49364328 77.2380065,3.05698776 75.942,3.05687944 L74.61,3.05676811 C73.3139935,3.05665979 72.2040046,3.49312977 71.28,4.36619114 C70.3559954,5.23925251 69.894,6.28809842 69.894,7.51276035 L69.894,16.7997336 C69.894,18.0470744 70.3559954,19.1073368 71.28,19.9805527 C72.2040046,20.8537685 73.3139935,21.290424 74.61,21.2905323 L75.942,21.2906437 C77.2380065,21.290752 78.3479954,20.854282 79.272,19.9812206 C80.1960046,19.1081593 80.658,18.0479741 80.658,16.8006332 L80.658,13.636939 L76.554,13.636596 L76.554,10.8471022 L83.61,10.847692 L83.61,16.8008799 C83.61,18.8193042 82.8660074,20.5314752 81.378,21.9374441 C79.8659924,23.36609 78.0540106,24.080314 75.942,24.0801374 L74.61,24.0800261 Z M91.962,24.0814764 L91.962,0.268724611 L94.914,0.26897134 L94.914,21.2922293 L101.862,21.2928101 L101.862,24.0823038 L91.962,24.0814764 Z M123.822,3.06088125 L113.094,3.05998461 L113.094,10.8501563 L119.934,10.8507279 L119.934,13.6402217 L113.094,13.63965 L113.094,21.2937488 L123.822,21.2946455 L123.822,24.0841393 L110.142,24.0829959 L110.142,0.270244097 L123.822,0.271387472 L123.822,3.06088125 Z M135.522,10.9200672 L139.662,10.9204133 C140.862006,10.9205135 141.833996,10.5407285 142.578,9.78104671 C143.322004,9.02136492 143.694,8.02920794 143.694,6.80454601 C143.694,5.602563 143.244005,4.67837308 142.344,4.0319485 C141.443995,3.38552393 140.382006,3.06226534 139.158,3.06216304 L134.514,3.06177489 L134.514,24.0850329 L131.562,24.0847862 L131.562,0.272034381 L139.158,0.272669255 C141.22201,0.272841765 142.961993,0.851291096 144.378,2.0080346 C145.890008,3.23282291 146.646,4.83172629 146.646,6.80479274 C146.646,8.73250133 146.010006,10.353967 144.738,11.6692383 C143.609994,12.8030902 142.194009,13.4606508 140.49,13.6419398 L146.61,24.0860439 L143.226,24.085761 L135.522,10.9200672 Z" id="logo" fill="#181A1A"></path>
            <g id="Text" transform="translate(0, 3)">
                <path d="M165.906977,9.75652174 L161.234977,14.4445217 L165.698977,20.9565217 L164.114977,20.9565217 L160.290977,15.3885217 L160.018977,15.6605217 L160.018977,20.9565217 L158.706977,20.9565217 L158.706977,9.75652174 L160.018977,9.75652174 L160.018977,13.8045217 L164.066977,9.75652174 L165.906977,9.75652174 Z M172.093643,14.7645217 L173.933643,14.7645217 C174.466979,14.7645217 174.898975,14.5858569 175.229643,14.2285217 C175.560312,13.8711866 175.725643,13.4045246 175.725643,12.8285217 C175.725643,12.2631856 175.525645,11.8285233 175.125643,11.5245217 C174.725641,11.2205202 174.253646,11.0685217 173.709643,11.0685217 L171.645643,11.0685217 L171.645643,20.9565217 L170.333643,20.9565217 L170.333643,9.75652174 L173.709643,9.75652174 C174.626981,9.75652174 175.400307,10.028519 176.029643,10.5725217 C176.701647,11.1485246 177.037643,11.9005171 177.037643,12.8285217 C177.037643,13.7351929 176.75498,14.497852 176.189643,15.1165217 C175.688308,15.6498577 175.058981,15.959188 174.301643,16.0445217 L177.021643,20.9565217 L175.517643,20.9565217 L172.093643,14.7645217 Z" id="kr" fill="#CC1133"></path>
            </g>
        </g>
    </g>
</svg>
