<svg version="1.1" xmlns="http://www.w3.org/2000/svg" xmlns:xlink="http://www.w3.org/1999/xlink" width="600" height="100" viewBox="0 0 600 100"><path id="Ellipse-1" d="M50.000,100.000 C22.386,100.000 -0.000,77.614 -0.000,50.000 C-0.000,22.386 22.386,-0.000 50.000,-0.000 C77.614,-0.000 100.000,22.386 100.000,50.000 C100.000,77.614 77.614,100.000 50.000,100.000 zM66.713,36.138 C67.291,36.786 68.069,37.263 68.991,37.426 C71.167,37.809 73.241,36.357 73.625,34.181 C74.008,32.005 72.556,29.931 70.380,29.547 C68.474,29.211 66.647,30.284 65.965,32.018 C65.965,32.018 53.978,29.904 53.978,29.904 C53.976,29.860 53.969,29.817 53.965,29.774 C53.958,29.639 53.950,29.506 53.929,29.372 C53.927,29.354 53.928,29.337 53.925,29.319 C53.921,29.296 53.913,29.275 53.906,29.254 C53.898,29.213 53.885,29.174 53.875,29.133 C53.826,28.913 53.760,28.698 53.672,28.484 C53.652,28.430 53.633,28.376 53.609,28.324 C53.593,28.292 53.574,28.261 53.557,28.229 C53.519,28.152 53.495,28.071 53.452,27.995 C53.413,27.929 53.362,27.876 53.321,27.813 C53.318,27.808 53.315,27.803 53.312,27.799 C53.308,27.793 53.305,27.787 53.301,27.781 C53.285,27.757 53.273,27.731 53.256,27.707 C53.254,27.704 53.252,27.700 53.250,27.697 C53.221,27.656 53.184,27.619 53.153,27.580 C53.044,27.437 52.930,27.302 52.805,27.177 C52.799,27.171 52.793,27.164 52.787,27.157 C52.778,27.149 52.771,27.139 52.762,27.131 C52.757,27.126 52.753,27.120 52.748,27.115 C52.719,27.088 52.686,27.066 52.657,27.040 C52.502,26.901 52.341,26.774 52.169,26.662 C52.163,26.657 52.156,26.652 52.149,26.647 C52.140,26.641 52.132,26.634 52.123,26.628 C52.075,26.598 52.037,26.559 51.987,26.531 C51.949,26.508 51.908,26.494 51.868,26.477 C51.740,26.409 51.609,26.354 51.476,26.300 C51.475,26.300 51.474,26.300 51.474,26.299 C51.469,26.298 51.465,26.295 51.460,26.293 C51.448,26.288 51.436,26.282 51.423,26.277 C51.402,26.269 51.381,26.265 51.360,26.257 C51.162,26.184 50.961,26.127 50.754,26.086 C50.730,26.081 50.707,26.074 50.684,26.070 C50.663,26.067 50.643,26.067 50.622,26.064 C50.442,26.035 50.262,26.013 50.078,26.009 C50.048,26.005 50.018,26.000 49.987,26.000 C49.957,26.000 49.928,26.008 49.897,26.009 C49.875,26.010 49.855,26.015 49.833,26.016 C49.628,26.023 49.425,26.046 49.221,26.086 C49.181,26.092 49.140,26.097 49.101,26.106 C49.072,26.113 49.045,26.125 49.017,26.132 C48.842,26.176 48.670,26.231 48.499,26.300 C48.453,26.317 48.406,26.332 48.362,26.352 C48.322,26.369 48.286,26.394 48.247,26.414 C48.161,26.456 48.072,26.482 47.987,26.531 C47.921,26.569 47.869,26.620 47.806,26.662 C47.801,26.664 47.797,26.667 47.793,26.669 C47.760,26.689 47.726,26.708 47.694,26.730 C47.654,26.758 47.619,26.793 47.581,26.824 C47.435,26.934 47.297,27.050 47.170,27.177 C47.148,27.197 47.125,27.217 47.104,27.238 C47.076,27.268 47.052,27.303 47.025,27.334 C46.888,27.486 46.765,27.644 46.654,27.813 C46.642,27.829 46.630,27.845 46.618,27.863 C46.616,27.866 46.614,27.869 46.611,27.873 C46.584,27.916 46.549,27.950 46.523,27.995 C46.501,28.034 46.486,28.074 46.469,28.115 C46.398,28.248 46.341,28.386 46.285,28.527 C46.274,28.552 46.262,28.577 46.252,28.603 C46.243,28.628 46.237,28.653 46.229,28.679 C46.169,28.851 46.119,29.024 46.083,29.203 C46.071,29.241 46.057,29.278 46.050,29.319 C46.042,29.367 46.041,29.414 46.040,29.461 C46.021,29.597 46.005,29.731 46.001,29.868 C46.000,29.880 45.998,29.892 45.997,29.904 C45.997,29.904 34.010,32.018 34.010,32.018 C33.328,30.284 31.501,29.211 29.595,29.547 C27.419,29.931 25.967,32.005 26.350,34.181 C26.734,36.357 28.808,37.809 30.984,37.426 C31.772,37.287 32.460,36.921 33.005,36.414 C33.005,36.414 41.435,43.209 41.435,43.209 C41.435,43.209 31.254,60.842 31.254,60.842 C29.488,60.250 27.491,60.960 26.523,62.636 C25.419,64.549 26.074,66.995 27.987,68.100 C29.901,69.205 32.347,68.549 33.452,66.636 C34.148,65.430 34.142,64.015 33.566,62.855 C33.566,62.855 49.187,50.264 49.187,50.264 C49.187,50.264 49.187,66.081 49.187,66.081 C47.362,66.451 45.987,68.065 45.987,70.000 C45.987,72.209 47.778,74.000 49.987,74.000 C52.197,74.000 53.987,72.209 53.987,70.000 C53.987,68.065 52.613,66.451 50.787,66.081 C50.787,66.081 50.787,50.747 50.787,50.747 C50.787,50.747 66.265,63.223 66.265,63.223 C65.854,64.307 65.899,65.554 66.523,66.636 C67.628,68.549 70.074,69.205 71.987,68.100 C73.901,66.995 74.556,64.549 73.452,62.636 C72.484,60.960 70.487,60.250 68.721,60.842 C68.721,60.842 58.350,42.879 58.350,42.879 C58.350,42.879 66.713,36.138 66.713,36.138 zM50.962,48.833 L57.089,43.895 C57.089,43.895 67.346,61.661 67.346,61.661 C67.273,61.728 67.197,61.793 67.128,61.863 C67.128,61.863 50.962,48.833 50.962,48.833 zM52.634,32.979 C52.709,32.909 52.780,32.837 52.850,32.763 C52.920,32.691 52.990,32.621 53.054,32.543 C53.162,32.414 53.255,32.278 53.345,32.138 C53.370,32.097 53.395,32.057 53.419,32.016 C53.520,31.844 53.608,31.667 53.682,31.482 C53.683,31.480 53.684,31.479 53.685,31.477 C53.685,31.477 65.700,33.596 65.700,33.596 C65.716,33.988 65.784,34.371 65.904,34.735 C65.904,34.735 57.540,41.476 57.540,41.476 C57.540,41.476 52.634,32.979 52.634,32.979 zM50.787,46.919 C50.787,46.919 50.787,33.926 50.787,33.926 C50.927,33.897 51.059,33.850 51.192,33.804 C51.212,33.798 51.233,33.792 51.253,33.786 C51.253,33.786 56.279,42.493 56.279,42.493 L50.787,46.919 zM48.720,33.791 C48.768,33.807 48.819,33.818 48.868,33.832 C48.889,33.839 48.911,33.844 48.932,33.851 C48.943,33.854 48.954,33.858 48.966,33.861 C49.039,33.885 49.111,33.910 49.187,33.926 C49.187,33.926 49.187,47.403 49.187,47.403 L43.505,42.823 C43.505,42.823 48.720,33.791 48.720,33.791 zM33.943,35.115 C34.153,34.645 34.265,34.129 34.279,33.595 C34.279,33.595 46.281,31.479 46.281,31.479 C46.329,31.601 46.385,31.718 46.444,31.834 C46.445,31.834 46.445,31.835 46.445,31.835 C46.445,31.836 46.446,31.837 46.446,31.837 C46.446,31.837 46.447,31.838 46.447,31.838 C46.453,31.849 46.461,31.859 46.467,31.871 C46.489,31.911 46.500,31.955 46.523,31.995 C46.579,32.091 46.652,32.170 46.715,32.260 C46.778,32.354 46.841,32.447 46.912,32.534 C46.993,32.633 47.080,32.723 47.169,32.812 C47.226,32.870 47.274,32.936 47.335,32.990 C47.335,32.990 42.244,41.806 42.244,41.806 C42.244,41.806 33.943,35.115 33.943,35.115 zM48.413,48.833 L32.743,61.464 L42.695,44.225 L48.413,48.833 z" fill="#AAAAAA" fill-opacity="0.5" /><path id="Ellipse-2" d="M83.262,83.262 C64.127,102.398 33.722,103.018 15.352,84.648 C-3.018,66.278 -2.398,35.873 16.738,16.738 C35.873,-2.398 66.278,-3.018 84.648,15.352 C103.018,33.722 102.398,64.127 83.262,83.262 zM66.713,36.138 C67.291,36.786 68.069,37.263 68.991,37.426 C71.167,37.809 73.241,36.357 73.625,34.181 C74.008,32.005 72.556,29.931 70.380,29.547 C68.474,29.211 66.647,30.284 65.965,32.018 C65.965,32.018 53.978,29.904 53.978,29.904 C53.976,29.860 53.969,29.817 53.965,29.774 C53.958,29.639 53.950,29.506 53.929,29.372 C53.927,29.354 53.928,29.337 53.925,29.319 C53.921,29.296 53.913,29.275 53.906,29.254 C53.898,29.213 53.885,29.174 53.875,29.133 C53.826,28.913 53.760,28.698 53.672,28.484 C53.652,28.430 53.633,28.376 53.609,28.324 C53.593,28.292 53.574,28.261 53.557,28.229 C53.519,28.152 53.495,28.071 53.452,27.995 C53.413,27.929 53.362,27.876 53.321,27.813 C53.318,27.808 53.315,27.803 53.312,27.799 C53.308,27.793 53.305,27.787 53.301,27.781 C53.285,27.757 53.273,27.731 53.256,27.707 C53.254,27.704 53.252,27.700 53.250,27.697 C53.221,27.656 53.184,27.619 53.153,27.580 C53.044,27.437 52.930,27.302 52.805,27.177 C52.799,27.171 52.793,27.164 52.787,27.157 C52.778,27.149 52.771,27.139 52.762,27.131 C52.757,27.126 52.753,27.120 52.748,27.115 C52.719,27.088 52.686,27.066 52.657,27.040 C52.502,26.901 52.341,26.774 52.169,26.662 C52.163,26.657 52.156,26.652 52.149,26.647 C52.140,26.641 52.132,26.634 52.123,26.628 C52.075,26.598 52.037,26.559 51.987,26.531 C51.949,26.508 51.908,26.494 51.868,26.477 C51.740,26.409 51.609,26.354 51.476,26.300 C51.475,26.300 51.474,26.300 51.474,26.299 C51.469,26.298 51.465,26.295 51.460,26.293 C51.448,26.288 51.436,26.282 51.423,26.277 C51.402,26.269 51.381,26.265 51.360,26.257 C51.162,26.184 50.961,26.127 50.754,26.086 C50.730,26.081 50.707,26.074 50.684,26.070 C50.663,26.067 50.643,26.067 50.622,26.064 C50.442,26.035 50.262,26.013 50.078,26.009 C50.048,26.005 50.018,26.000 49.987,26.000 C49.957,26.000 49.928,26.008 49.897,26.009 C49.875,26.010 49.855,26.015 49.833,26.016 C49.628,26.023 49.425,26.046 49.221,26.086 C49.181,26.092 49.140,26.097 49.101,26.106 C49.072,26.113 49.045,26.125 49.017,26.132 C48.842,26.176 48.670,26.231 48.499,26.300 C48.453,26.317 48.406,26.332 48.362,26.352 C48.322,26.369 48.286,26.394 48.247,26.414 C48.161,26.456 48.072,26.482 47.987,26.531 C47.921,26.569 47.869,26.620 47.806,26.662 C47.801,26.664 47.797,26.667 47.793,26.669 C47.760,26.689 47.726,26.708 47.694,26.730 C47.654,26.758 47.619,26.793 47.581,26.824 C47.435,26.934 47.297,27.050 47.170,27.177 C47.148,27.197 47.125,27.217 47.104,27.238 C47.076,27.268 47.052,27.303 47.025,27.334 C46.888,27.486 46.765,27.644 46.654,27.813 C46.642,27.829 46.630,27.845 46.618,27.863 C46.616,27.866 46.614,27.869 46.611,27.873 C46.584,27.916 46.549,27.950 46.523,27.995 C46.501,28.034 46.486,28.074 46.469,28.115 C46.398,28.248 46.341,28.386 46.285,28.527 C46.274,28.552 46.262,28.577 46.252,28.603 C46.243,28.628 46.237,28.653 46.229,28.679 C46.169,28.851 46.119,29.024 46.083,29.203 C46.071,29.241 46.057,29.278 46.050,29.319 C46.042,29.367 46.041,29.414 46.040,29.461 C46.021,29.597 46.005,29.731 46.001,29.868 C46.000,29.880 45.998,29.892 45.997,29.904 C45.997,29.904 34.010,32.018 34.010,32.018 C33.328,30.284 31.501,29.211 29.595,29.547 C27.419,29.931 25.967,32.005 26.350,34.181 C26.734,36.357 28.808,37.809 30.984,37.426 C31.772,37.287 32.460,36.921 33.005,36.414 C33.005,36.414 41.435,43.209 41.435,43.209 C41.435,43.209 31.254,60.842 31.254,60.842 C29.488,60.250 27.491,60.960 26.523,62.636 C25.419,64.549 26.074,66.995 27.987,68.100 C29.901,69.205 32.347,68.549 33.452,66.636 C34.148,65.430 34.142,64.015 33.566,62.855 C33.566,62.855 49.187,50.264 49.187,50.264 C49.187,50.264 49.187,66.081 49.187,66.081 C47.362,66.451 45.987,68.065 45.987,70.000 C45.987,72.209 47.778,74.000 49.987,74.000 C52.197,74.000 53.987,72.209 53.987,70.000 C53.987,68.065 52.613,66.451 50.787,66.081 C50.787,66.081 50.787,50.747 50.787,50.747 C50.787,50.747 66.265,63.223 66.265,63.223 C65.854,64.307 65.899,65.554 66.523,66.636 C67.628,68.549 70.074,69.205 71.987,68.100 C73.901,66.995 74.556,64.549 73.452,62.636 C72.484,60.960 70.487,60.250 68.721,60.842 C68.721,60.842 58.350,42.879 58.350,42.879 C58.350,42.879 66.713,36.138 66.713,36.138 zM50.962,48.833 L57.089,43.895 C57.089,43.895 67.346,61.661 67.346,61.661 C67.273,61.728 67.197,61.793 67.128,61.863 C67.128,61.863 50.962,48.833 50.962,48.833 zM52.634,32.979 C52.709,32.909 52.780,32.837 52.850,32.763 C52.920,32.691 52.990,32.621 53.054,32.543 C53.162,32.414 53.255,32.278 53.345,32.138 C53.370,32.097 53.395,32.057 53.419,32.016 C53.520,31.844 53.608,31.667 53.682,31.482 C53.683,31.480 53.684,31.479 53.685,31.477 C53.685,31.477 65.700,33.596 65.700,33.596 C65.716,33.988 65.784,34.371 65.904,34.735 C65.904,34.735 57.540,41.476 57.540,41.476 C57.540,41.476 52.634,32.979 52.634,32.979 zM50.787,46.919 C50.787,46.919 50.787,33.926 50.787,33.926 C50.927,33.897 51.059,33.850 51.192,33.804 C51.212,33.798 51.233,33.792 51.253,33.786 C51.253,33.786 56.279,42.493 56.279,42.493 L50.787,46.919 zM48.720,33.791 C48.768,33.807 48.819,33.818 48.868,33.832 C48.889,33.839 48.911,33.844 48.932,33.851 C48.943,33.854 48.954,33.858 48.966,33.861 C49.039,33.885 49.111,33.910 49.187,33.926 C49.187,33.926 49.187,47.403 49.187,47.403 L43.505,42.823 C43.505,42.823 48.720,33.791 48.720,33.791 zM33.943,35.115 C34.153,34.645 34.265,34.129 34.279,33.595 C34.279,33.595 46.281,31.479 46.281,31.479 C46.329,31.601 46.385,31.718 46.444,31.834 C46.445,31.834 46.445,31.835 46.445,31.835 C46.445,31.836 46.446,31.837 46.446,31.837 C46.446,31.837 46.447,31.838 46.447,31.838 C46.453,31.849 46.461,31.859 46.467,31.871 C46.489,31.911 46.500,31.955 46.523,31.995 C46.579,32.091 46.652,32.170 46.715,32.260 C46.778,32.354 46.841,32.447 46.912,32.534 C46.993,32.633 47.080,32.723 47.169,32.812 C47.226,32.870 47.274,32.936 47.335,32.990 C47.335,32.990 42.244,41.806 42.244,41.806 C42.244,41.806 33.943,35.115 33.943,35.115 zM48.413,48.833 L32.743,61.464 L42.695,44.225 L48.413,48.833 z" fill="#AAAAAA" /><path id="logo" d="M178.078,26.403 L162.398,26.402 L162.398,81.949 L154.698,81.949 L154.698,26.401 L139.018,26.400 L139.018,19.029 L178.078,19.033 L178.078,26.403 zM222.342,81.949 L209.674,35.753 L197.006,81.947 L197.187,81.947 L197.186,81.952 L189.017,81.952 L206.575,19.035 L212.678,19.035 L230.049,81.955 L222.068,81.954 L222.067,81.949 L222.342,81.949 zM259.063,37.825 L259.063,81.957 L251.363,81.957 L251.363,19.039 L256.809,19.039 L283.476,64.163 L283.476,19.041 L291.175,19.042 L291.175,81.960 L285.166,81.960 L259.063,37.825 zM318.686,76.300 C314.805,72.584 312.865,68.060 312.865,62.727 C312.865,38.189 312.865,38.189 312.865,38.189 C312.865,32.916 314.805,28.422 318.686,24.707 C322.630,20.932 327.356,19.045 332.865,19.046 C336.339,19.046 336.339,19.046 336.339,19.046 C341.847,19.046 346.573,20.934 350.517,24.710 C354.398,28.425 356.338,32.920 356.338,38.193 C356.338,39.811 356.338,39.811 356.338,39.811 L348.639,39.810 C348.639,39.810 348.639,38.192 348.639,38.192 C348.639,34.956 347.434,32.185 345.024,29.878 C342.614,27.570 339.719,26.417 336.339,26.416 C332.865,26.416 332.865,26.416 332.865,26.416 C329.484,26.416 326.589,27.569 324.179,29.876 C321.769,32.183 320.564,34.954 320.564,38.190 C320.564,62.728 320.564,62.728 320.564,62.728 C320.564,66.023 321.769,68.825 324.179,71.132 C326.589,73.439 329.484,74.593 332.865,74.593 C336.339,74.594 336.339,74.594 336.339,74.594 C339.719,74.594 342.614,73.441 345.024,71.134 C347.434,68.827 348.639,66.026 348.639,62.730 C348.639,54.371 348.639,54.371 348.639,54.371 L337.935,54.370 L337.935,47.000 L356.338,47.001 C356.338,47.001 356.338,62.731 356.338,62.731 C356.338,68.064 354.398,72.588 350.517,76.303 C346.573,80.077 341.847,81.964 336.339,81.964 C332.865,81.964 332.865,81.964 332.865,81.964 C327.356,81.963 322.630,80.075 318.686,76.300 zM378.122,19.049 L385.821,19.050 L385.821,74.598 L403.943,74.599 L403.943,81.970 L378.122,81.968 L378.122,19.049 zM433.239,26.425 L433.239,47.008 L451.079,47.009 L451.079,54.380 L433.239,54.378 L433.239,74.602 L461.219,74.604 L461.219,81.975 L425.539,81.972 L425.539,19.053 L461.219,19.057 L461.219,26.427 L433.239,26.425 zM502.533,47.193 C505.663,47.194 508.198,46.190 510.139,44.183 C512.079,42.176 513.050,39.554 513.050,36.318 C513.050,33.143 511.876,30.701 509.529,28.993 C507.181,27.285 504.411,26.431 501.219,26.430 C489.106,26.429 489.106,26.429 489.106,26.429 L489.106,81.977 L481.407,81.976 L481.407,19.058 C481.407,19.058 501.219,19.060 501.219,19.060 C506.602,19.060 511.140,20.589 514.834,23.645 C518.777,26.881 520.749,31.106 520.749,36.319 C520.749,41.412 519.090,45.697 515.773,49.172 C512.831,52.168 509.137,53.905 504.693,54.384 C520.655,81.980 520.655,81.980 520.655,81.980 L511.829,81.979 L491.735,47.192 C491.735,47.192 502.533,47.193 502.533,47.193 z" fill="#AAAAAA" /><path id="kr" d="M558.800,64.431 L570.443,81.637 L566.312,81.637 L556.338,66.926 L555.629,67.644 L555.629,81.637 L552.207,81.637 L552.207,52.045 L555.629,52.045 L555.629,62.740 L566.187,52.045 L570.986,52.045 L558.800,64.431 zM591.921,65.277 C593.312,65.277 594.439,64.805 595.301,63.861 C596.163,62.917 596.595,61.684 596.595,60.162 C596.595,58.668 596.073,57.519 595.030,56.716 C593.987,55.913 592.755,55.511 591.337,55.511 C585.953,55.511 585.953,55.511 585.953,55.511 L585.953,81.637 L582.531,81.637 L582.531,52.045 C582.531,52.045 591.337,52.045 591.337,52.045 C593.729,52.045 595.746,52.763 597.388,54.201 C599.140,55.723 600.017,57.710 600.017,60.162 C600.017,62.557 599.279,64.572 597.805,66.207 C596.497,67.616 594.856,68.433 592.881,68.659 C599.975,81.637 599.975,81.637 599.975,81.637 L596.052,81.637 L587.122,65.277 C587.122,65.277 591.921,65.277 591.921,65.277 z" fill="#AAAAAA" /></svg>