<svg version="1.1" xmlns="http://www.w3.org/2000/svg" xmlns:xlink="http://www.w3.org/1999/xlink" width="100" height="100" viewBox="0 0 100 100">
<defs>
<linearGradient id="gradient" gradientUnits="userSpaceOnUse" x1="20%" y1="20%" x2="80%" y2="80%" >
<stop offset="0%" stop-color="#FF00FF" />
<stop offset="100%" stop-color="#01FFAB" />
</linearGradient>
</defs>
<path id="Ellipse-1" d="M50.000,-0.000 C77.614,-0.000 100.000,22.386 100.000,50.000 C100.000,77.614 77.614,100.000 50.000,100.000 C22.386,100.000 -0.000,77.614 -0.000,50.000 C-0.000,22.386 22.386,-0.000 50.000,-0.000 z" fill="url(#gradient)" />
<path id="Ellipse-2" d="M84.648,15.352 C103.018,33.722 102.398,64.127 83.262,83.262 C64.127,102.398 33.722,103.018 15.352,84.648 C-3.018,66.278 -2.398,35.873 16.738,16.738 C35.873,-2.398 66.278,-3.018 84.648,15.352 z" fill="#000000" />
<path id="Logo" d="M68.991,37.426 C68.069,37.263 67.291,36.786 66.713,36.138 C66.713,36.138 58.350,42.879 58.350,42.879 C58.350,42.879 68.721,60.842 68.721,60.842 C70.487,60.250 72.484,60.960 73.452,62.636 C74.556,64.549 73.901,66.995 71.987,68.100 C70.074,69.205 67.628,68.549 66.523,66.636 C65.899,65.554 65.854,64.307 66.265,63.223 C66.265,63.223 50.787,50.747 50.787,50.747 C50.787,50.747 50.787,66.081 50.787,66.081 C52.613,66.451 53.987,68.065 53.987,70.000 C53.987,72.209 52.197,74.000 49.988,74.000 C47.778,74.000 45.988,72.209 45.988,70.000 C45.988,68.065 47.362,66.451 49.188,66.081 C49.188,66.081 49.188,50.264 49.188,50.264 C49.188,50.264 33.566,62.855 33.566,62.855 C34.142,64.015 34.148,65.430 33.452,66.636 C32.347,68.549 29.901,69.205 27.988,68.100 C26.074,66.995 25.419,64.549 26.523,62.636 C27.491,60.960 29.488,60.250 31.254,60.842 C31.254,60.842 41.435,43.209 41.435,43.209 C41.435,43.209 33.005,36.415 33.005,36.415 C32.460,36.921 31.772,37.287 30.984,37.426 C28.808,37.809 26.734,36.357 26.350,34.181 C25.967,32.005 27.419,29.931 29.595,29.547 C31.501,29.211 33.328,30.284 34.010,32.018 C34.010,32.018 45.997,29.904 45.997,29.904 C45.998,29.892 46.000,29.880 46.001,29.868 C46.005,29.731 46.021,29.597 46.040,29.461 C46.041,29.414 46.042,29.367 46.050,29.319 C46.057,29.278 46.071,29.241 46.083,29.203 C46.119,29.024 46.169,28.851 46.229,28.679 C46.237,28.653 46.243,28.628 46.252,28.603 C46.262,28.577 46.274,28.552 46.285,28.527 C46.341,28.386 46.398,28.248 46.469,28.115 C46.486,28.074 46.501,28.034 46.523,27.995 C46.549,27.950 46.584,27.916 46.611,27.873 C46.614,27.869 46.616,27.866 46.618,27.863 C46.630,27.845 46.642,27.829 46.654,27.813 C46.765,27.644 46.888,27.486 47.025,27.334 C47.052,27.303 47.076,27.268 47.104,27.238 C47.125,27.217 47.148,27.197 47.170,27.177 C47.297,27.050 47.435,26.934 47.581,26.824 C47.619,26.793 47.654,26.758 47.694,26.730 C47.726,26.708 47.760,26.689 47.793,26.669 C47.797,26.667 47.801,26.664 47.806,26.662 C47.869,26.620 47.921,26.569 47.987,26.531 C48.072,26.482 48.161,26.456 48.247,26.414 C48.286,26.394 48.322,26.369 48.362,26.352 C48.406,26.332 48.453,26.317 48.499,26.300 C48.670,26.231 48.842,26.176 49.017,26.132 C49.045,26.125 49.072,26.113 49.101,26.106 C49.140,26.097 49.181,26.092 49.221,26.086 C49.425,26.046 49.628,26.023 49.833,26.016 C49.855,26.015 49.875,26.010 49.897,26.009 C49.928,26.008 49.957,26.000 49.988,26.000 C50.018,26.000 50.048,26.005 50.078,26.009 C50.262,26.013 50.442,26.035 50.622,26.064 C50.643,26.067 50.663,26.067 50.684,26.070 C50.707,26.074 50.730,26.081 50.754,26.086 C50.961,26.127 51.162,26.184 51.360,26.257 C51.381,26.265 51.402,26.269 51.423,26.277 C51.436,26.282 51.448,26.288 51.460,26.293 C51.465,26.295 51.469,26.298 51.474,26.299 C51.474,26.300 51.475,26.300 51.476,26.300 C51.609,26.354 51.740,26.409 51.868,26.477 C51.908,26.494 51.949,26.508 51.988,26.531 C52.037,26.559 52.075,26.598 52.123,26.628 C52.132,26.634 52.140,26.641 52.149,26.647 C52.156,26.652 52.163,26.657 52.169,26.662 C52.341,26.774 52.502,26.901 52.657,27.040 C52.686,27.066 52.719,27.088 52.748,27.115 C52.753,27.120 52.757,27.126 52.762,27.131 C52.771,27.139 52.778,27.149 52.787,27.157 C52.793,27.164 52.799,27.171 52.805,27.177 C52.930,27.302 53.044,27.437 53.153,27.580 C53.184,27.619 53.221,27.656 53.250,27.697 C53.252,27.700 53.254,27.704 53.256,27.707 C53.273,27.731 53.285,27.757 53.301,27.781 C53.305,27.787 53.308,27.793 53.312,27.799 C53.315,27.803 53.318,27.808 53.321,27.813 C53.362,27.876 53.413,27.929 53.452,27.995 C53.495,28.071 53.519,28.152 53.557,28.229 C53.574,28.261 53.593,28.292 53.609,28.324 C53.633,28.376 53.652,28.430 53.672,28.484 C53.760,28.698 53.826,28.913 53.875,29.133 C53.885,29.174 53.898,29.213 53.906,29.254 C53.913,29.275 53.921,29.296 53.925,29.319 C53.928,29.337 53.927,29.354 53.929,29.372 C53.950,29.506 53.958,29.639 53.965,29.774 C53.969,29.817 53.976,29.860 53.978,29.904 C53.978,29.904 65.965,32.018 65.965,32.018 C66.647,30.284 68.474,29.211 70.380,29.547 C72.556,29.931 74.008,32.005 73.625,34.181 C73.241,36.357 71.167,37.809 68.991,37.426 zM32.743,61.464 L48.413,48.833 L42.695,44.225 L32.743,61.464 zM47.169,32.812 C47.080,32.723 46.993,32.633 46.912,32.534 C46.841,32.447 46.778,32.354 46.715,32.260 C46.652,32.170 46.579,32.091 46.523,31.995 C46.500,31.955 46.489,31.911 46.467,31.871 C46.461,31.859 46.453,31.849 46.447,31.838 C46.447,31.838 46.446,31.837 46.446,31.837 C46.446,31.837 46.445,31.836 46.445,31.835 C46.445,31.835 46.445,31.834 46.444,31.834 C46.385,31.718 46.329,31.601 46.281,31.479 C46.281,31.479 34.279,33.595 34.279,33.595 C34.265,34.129 34.153,34.645 33.943,35.115 C33.943,35.115 42.244,41.806 42.244,41.806 C42.244,41.806 47.335,32.990 47.335,32.990 C47.274,32.936 47.226,32.870 47.169,32.812 zM49.188,33.926 C49.111,33.910 49.039,33.885 48.966,33.861 C48.954,33.858 48.943,33.854 48.932,33.851 C48.911,33.844 48.889,33.839 48.868,33.832 C48.819,33.818 48.768,33.807 48.720,33.791 C48.720,33.791 43.505,42.823 43.505,42.823 L49.188,47.403 C49.188,47.403 49.188,33.926 49.188,33.926 zM67.128,61.863 C67.197,61.793 67.273,61.728 67.346,61.661 C67.346,61.661 57.089,43.895 57.089,43.895 L50.962,48.833 C50.962,48.833 67.128,61.863 67.128,61.863 zM50.787,46.919 L56.279,42.493 C56.279,42.493 51.253,33.786 51.253,33.786 C51.233,33.792 51.212,33.798 51.192,33.804 C51.059,33.850 50.927,33.897 50.787,33.926 C50.787,33.926 50.787,46.919 50.787,46.919 zM65.700,33.596 C65.700,33.596 53.685,31.477 53.685,31.477 C53.684,31.479 53.683,31.480 53.682,31.482 C53.608,31.667 53.520,31.844 53.419,32.016 C53.395,32.057 53.370,32.097 53.345,32.138 C53.255,32.278 53.162,32.414 53.054,32.543 C52.990,32.621 52.920,32.691 52.850,32.763 C52.780,32.837 52.709,32.909 52.634,32.979 C52.634,32.979 57.540,41.476 57.540,41.476 C57.540,41.476 65.904,34.735 65.904,34.735 C65.784,34.371 65.716,33.988 65.700,33.596 z" fill="#FFFFFF" />
</svg>
